<?xml version="1.0" encoding="UTF-8" ?>
<!DOCTYPE svg PUBLIC "-//W3C//DTD SVG 1.1//EN" "http://www.w3.org/Graphics/SVG/1.1/DTD/svg11.dtd">
<svg width="387pt" height="202pt" viewBox="0 0 387 202" version="1.1" xmlns="http://www.w3.org/2000/svg">
<g id="#f8a11bff">
<path fill="#f8a11b" opacity="1.00" d=" M 193.21 21.54 C 205.58 11.77 221.24 6.33 237.00 6.31 C 248.33 6.78 259.83 8.73 269.92 14.14 C 285.12 21.89 297.37 35.27 303.63 51.15 C 310.19 67.52 310.26 86.38 303.82 102.80 C 297.89 118.11 286.40 131.15 272.01 139.05 C 247.67 152.81 215.34 150.23 193.50 132.74 C 205.10 123.29 213.92 110.35 217.76 95.84 C 222.84 77.27 219.91 56.65 209.70 40.31 C 205.38 33.11 199.44 27.09 193.21 21.54 Z" />
</g>
<g id="#ed1c24ff">
<path fill="#ed1c24" opacity="1.00" d=" M 119.68 12.72 C 143.20 1.95 172.49 5.37 192.76 21.50 C 179.02 32.44 169.47 48.57 166.83 65.97 C 162.53 90.95 173.34 117.44 193.21 132.99 C 182.74 140.92 170.25 146.26 157.14 147.62 C 140.89 149.47 124.04 145.58 110.34 136.64 C 94.86 126.71 83.49 110.56 79.55 92.58 C 76.71 80.54 77.82 67.89 81.08 56.06 C 86.97 36.97 101.44 20.82 119.68 12.72 Z" />
</g>
<g id="#f26422ff">
<path fill="#f26422" opacity="1.00" d=" M 192.76 21.50 L 192.97 21.31 L 193.21 21.54 C 199.44 27.09 205.38 33.11 209.70 40.31 C 219.91 56.65 222.84 77.27 217.76 95.84 C 213.92 110.35 205.10 123.29 193.50 132.74 L 193.21 132.99 C 173.34 117.44 162.53 90.95 166.83 65.97 C 169.47 48.57 179.02 32.44 192.76 21.50 Z" />
</g>
<g id="#231f20ff">
<path fill="#231f20" opacity="1.00" d=" M 319.50 173.59 C 319.41 169.58 319.40 165.57 319.38 161.56 C 321.10 161.56 322.82 161.56 324.55 161.56 C 324.44 172.56 324.99 183.58 324.40 194.56 C 322.77 194.55 321.15 194.55 319.53 194.55 C 319.56 193.91 319.62 192.65 319.66 192.01 C 315.68 196.22 308.67 196.22 304.38 192.51 C 298.39 187.52 298.73 176.69 305.39 172.43 C 309.63 169.41 315.84 169.83 319.50 173.59 M 310.48 175.63 C 304.40 177.27 303.78 186.90 309.32 189.60 C 313.90 192.21 320.22 188.29 319.76 183.00 C 320.24 178.12 315.14 174.00 310.48 175.63 Z" />
<path fill="#231f20" opacity="1.00" d=" M 165.58 164.22 C 167.32 164.20 169.06 164.19 170.81 164.18 C 170.81 166.53 170.81 168.88 170.82 171.24 C 173.61 171.25 176.39 171.25 179.18 171.25 C 179.18 172.84 179.18 174.42 179.19 176.01 C 176.42 176.06 173.65 176.07 170.89 176.07 C 170.99 180.31 170.59 184.60 171.23 188.81 C 172.66 191.95 176.60 190.10 179.00 189.46 C 179.45 190.95 179.90 192.45 180.34 193.96 C 175.96 195.94 168.97 196.80 166.47 191.64 C 165.01 186.61 165.85 181.25 165.63 176.08 C 164.04 176.07 162.46 176.06 160.87 176.05 C 160.87 174.47 160.88 172.89 160.89 171.31 C 162.44 171.31 163.99 171.31 165.54 171.31 C 165.56 168.95 165.56 166.58 165.58 164.22 Z" />
<path fill="#231f20" opacity="1.00" d=" M 69.70 174.16 C 73.42 169.52 81.18 169.96 84.51 174.84 C 88.64 168.85 99.84 169.63 101.77 177.09 C 102.77 183.00 101.99 189.04 102.31 195.00 C 100.56 194.99 98.81 195.00 97.07 195.00 C 96.71 189.63 97.58 184.14 96.44 178.84 C 95.06 174.00 86.73 175.17 86.26 180.05 C 85.78 185.04 86.08 190.06 86.07 195.06 C 84.32 195.06 82.58 195.06 80.83 195.06 C 80.52 189.72 81.27 184.28 80.25 179.01 C 79.03 174.08 70.66 175.09 70.09 179.97 C 69.59 184.97 70.00 190.01 69.87 195.03 C 68.14 195.02 66.42 195.00 64.69 194.99 C 64.74 187.19 64.56 179.38 64.64 171.58 C 66.31 171.57 67.99 171.56 69.66 171.55 C 69.67 172.20 69.69 173.51 69.70 174.16 Z" />
<path fill="#231f20" opacity="1.00" d=" M 111.97 172.84 C 116.15 169.82 122.39 170.16 126.01 173.93 C 126.03 173.29 126.08 172.02 126.10 171.38 C 127.82 171.42 129.54 171.45 131.26 171.50 C 131.22 179.31 131.26 187.12 131.32 194.93 C 129.59 194.94 127.87 194.94 126.15 194.95 C 126.15 194.35 126.15 193.14 126.15 192.53 C 122.02 196.77 114.69 196.51 110.55 192.45 C 105.01 187.36 105.53 176.99 111.97 172.84 M 116.30 176.33 C 110.21 178.70 110.92 189.05 117.33 190.51 C 121.96 191.98 126.83 187.83 126.37 183.06 C 126.71 177.96 120.90 173.97 116.30 176.33 Z" />
<path fill="#231f20" opacity="1.00" d=" M 140.40 172.41 C 145.52 169.69 151.79 170.54 156.79 173.13 C 156.07 174.52 155.34 175.92 154.62 177.31 C 151.60 176.11 148.32 174.82 145.03 175.65 C 143.27 175.90 141.64 178.10 143.29 179.53 C 147.12 180.97 151.61 180.55 155.08 182.92 C 158.73 185.65 157.83 191.88 153.86 193.87 C 148.35 196.72 141.40 195.86 136.25 192.61 C 137.04 191.27 137.84 189.94 138.64 188.61 C 142.11 190.61 146.45 191.81 150.33 190.29 C 151.79 189.89 152.76 187.78 151.30 186.78 C 147.63 185.00 143.12 185.64 139.67 183.31 C 135.97 180.78 136.55 174.51 140.40 172.41 Z" />
<path fill="#231f20" opacity="1.00" d=" M 187.42 173.51 C 192.09 169.39 200.35 169.71 204.11 174.89 C 206.35 177.78 206.59 181.55 206.73 185.05 C 200.75 185.11 194.76 184.98 188.79 185.14 C 189.53 187.21 190.61 189.42 192.85 190.21 C 196.30 191.65 200.02 190.26 203.00 188.42 C 203.86 189.70 204.72 190.99 205.57 192.28 C 200.91 195.64 194.39 196.72 189.24 193.81 C 182.22 189.86 181.68 178.79 187.42 173.51 M 188.82 180.85 C 192.99 180.99 197.15 180.96 201.32 180.90 C 200.86 177.81 198.22 174.97 194.91 175.34 C 191.74 175.34 189.50 177.95 188.82 180.85 Z" />
<path fill="#231f20" opacity="1.00" d=" M 211.95 171.33 C 213.60 171.28 215.26 171.24 216.92 171.20 C 216.95 171.78 217.00 172.96 217.02 173.55 C 219.46 170.59 223.39 170.19 226.91 171.05 C 226.47 172.65 226.02 174.24 225.58 175.83 C 222.72 175.46 218.54 175.10 217.52 178.62 C 216.64 183.95 217.35 189.42 217.12 194.81 C 215.41 194.81 213.71 194.81 212.01 194.82 C 211.94 186.99 211.91 179.16 211.95 171.33 Z" />
<path fill="#231f20" opacity="1.00" d=" M 233.69 172.65 C 238.50 169.67 245.25 169.83 249.72 173.41 C 248.89 174.74 248.07 176.09 247.25 177.43 C 244.47 175.98 241.18 174.66 238.10 176.05 C 232.74 178.22 232.40 186.86 237.45 189.58 C 240.63 191.50 244.35 190.06 247.35 188.51 C 248.15 189.93 248.96 191.35 249.76 192.78 C 245.07 195.92 238.54 196.42 233.73 193.29 C 226.70 188.91 226.70 177.08 233.69 172.65 Z" />
<path fill="#231f20" opacity="1.00" d=" M 257.56 172.51 C 261.77 169.45 267.90 170.05 271.66 173.57 C 271.64 172.95 271.58 171.73 271.55 171.12 C 273.27 171.12 275.01 171.13 276.74 171.14 C 276.75 178.99 276.75 186.84 276.82 194.69 C 275.10 194.69 273.39 194.69 271.68 194.69 C 271.70 194.05 271.74 192.76 271.76 192.12 C 267.78 196.41 260.69 196.24 256.42 192.50 C 250.49 187.50 250.94 176.74 257.56 172.51 M 261.33 176.27 C 255.70 179.10 256.72 188.97 263.03 190.25 C 267.97 191.73 272.77 186.87 271.86 181.97 C 271.67 176.95 265.64 173.77 261.33 176.27 Z" />
<path fill="#231f20" opacity="1.00" d=" M 283.56 171.13 C 285.25 171.12 286.95 171.11 288.65 171.10 C 288.66 171.65 288.67 172.74 288.67 173.28 C 291.25 170.52 295.11 169.97 298.65 170.95 C 298.13 172.54 297.62 174.14 297.10 175.74 C 294.35 175.33 290.39 174.94 289.29 178.24 C 288.21 183.62 289.11 189.19 288.79 194.65 C 287.07 194.67 285.35 194.69 283.64 194.71 C 283.63 186.85 283.62 178.99 283.56 171.13 Z" />
</g>
</svg>
